# xmcd CD database file
#
# Track frame offsets:
#	150
#	38797
#	60012
#	84170
#	117530
#	157759
#	178652
#	202660
#	229315
#	251912
#	268952
#	303235
#	328605
#
# Disc length: 4720 seconds
#
# Revision: 0
# Processed by: cddbd v1.4PL0 Copyright (c) Steve Scherf et al.
# Submitted via: CDex 1.50beta10
#
DISCID=a3126e0d
DTITLE=Houston Person - Legends of acid jazz (Person to person (1-6) - Houston express (7-13))
DYEAR=1970
DGENRE=Jazz
TTITLE0=Son of man
TTITLE1=Tear drops
TTITLE2=Close to you
TTITLE3=Drown in my own tears
TTITLE4=Up at Joe's, down at Jim's
TTITLE5=Yester-me, yester-you, yesterday
TTITLE6=Young, gifted and black
TTITLE7=The Houston express
TTITLE8=Enjoy
TTITLE9=Give more power to the people (for God's sake)
TTITLE10=Chains of love
TTITLE11=Just my imagination
TTITLE12=Lift every voice and sing
EXTD=YEAR: 1970
EXTT0=
EXTT1=
EXTT2=
EXTT3=
EXTT4=
EXTT5=
EXTT6=
EXTT7=
EXTT8=
EXTT9=
EXTT10=
EXTT11=
EXTT12=
PLAYORDER=
